<?xml version="1.0" encoding="UTF-8" standalone="no"?>
<!-- Created with Inkscape (http://www.inkscape.org/) -->

<svg
   width="109.97581mm"
   height="109.97581mm"
   viewBox="0 0 109.97581 109.97581"
   version="1.1"
   id="svg1"
   inkscape:version="1.4.3 (0d15f75042, 2025-12-25)"
   sodipodi:docname="logo.svg"
   inkscape:export-filename="awesome.png"
   inkscape:export-xdpi="150"
   inkscape:export-ydpi="150"
   xmlns:inkscape="http://www.inkscape.org/namespaces/inkscape"
   xmlns:sodipodi="http://sodipodi.sourceforge.net/DTD/sodipodi-0.dtd"
   xmlns:xlink="http://www.w3.org/1999/xlink"
   xmlns="http://www.w3.org/2000/svg"
   xmlns:svg="http://www.w3.org/2000/svg">
  <sodipodi:namedview
     id="namedview1"
     pagecolor="#ffffff"
     bordercolor="#000000"
     borderopacity="0.25"
     inkscape:showpageshadow="2"
     inkscape:pageopacity="0.0"
     inkscape:pagecheckerboard="0"
     inkscape:deskcolor="#d1d1d1"
     inkscape:document-units="mm"
     inkscape:zoom="0.72515432"
     inkscape:cx="213.0581"
     inkscape:cy="93.773143"
     inkscape:window-width="1920"
     inkscape:window-height="1008"
     inkscape:window-x="0"
     inkscape:window-y="0"
     inkscape:window-maximized="1"
     inkscape:current-layer="layer1"
     showgrid="false" />
  <defs
     id="defs1">
    <linearGradient
       id="linearGradient3"
       inkscape:collect="always">
      <stop
         style="stop-color:#e3ddd5;stop-opacity:1;"
         offset="0"
         id="stop3" />
      <stop
         style="stop-color:#d6cdc0;stop-opacity:1;"
         offset="1"
         id="stop4" />
    </linearGradient>
    <linearGradient
       id="linearGradient1"
       inkscape:collect="always">
      <stop
         style="stop-color:#e5e6e5;stop-opacity:1;"
         offset="0"
         id="stop1" />
      <stop
         style="stop-color:#f2f2f2;stop-opacity:1;"
         offset="1"
         id="stop2" />
    </linearGradient>
    <linearGradient
       inkscape:collect="always"
       xlink:href="#linearGradient1"
       id="linearGradient2"
       x1="150.5618"
       y1="230.67088"
       x2="54.02409"
       y2="131.79251"
       gradientUnits="userSpaceOnUse"
       gradientTransform="translate(0,-1.9315318)" />
    <linearGradient
       inkscape:collect="always"
       xlink:href="#linearGradient3"
       id="linearGradient4"
       x1="155.66991"
       y1="225.92764"
       x2="60.226795"
       y2="128.50873"
       gradientUnits="userSpaceOnUse"
       gradientTransform="translate(0,-1.9315318)" />
  </defs>
  <g
     inkscape:label="Layer 1"
     inkscape:groupmode="layer"
     id="layer1"
     transform="translate(-48.39964,-123.76497)">
    <rect
       style="fill:url(#linearGradient4);stroke:url(#linearGradient2);stroke-width:4.165;stroke-linecap:round;stroke-dasharray:none;stroke-opacity:1"
       id="rect1"
       width="105.81081"
       height="105.81081"
       x="50.48214"
       y="125.84747"
       ry="13.5" />
    <g
       id="g31"
       transform="matrix(0.60212725,0,0,0.60212725,-292.40444,118.54855)">
      <g
         id="g30"
         transform="translate(1.918425,-26.755728)">
        <path
           style="fill:#fc60a8;fill-opacity:1;stroke-width:0.264583"
           d="m 733.84797,105.78677 -39.6875,-36.406668 -5.58271,6.085416 33.07292,30.321252 H 591.29047 l 33.07292,-30.34771 -5.58271,-6.085417 -39.6875,36.433127 h -0.0265 v 23.99771 c 0,10.84791 10.45104,19.685 23.28334,19.685 h 24.47395 c 12.8323,0 23.28334,-8.83709 23.28334,-19.685 v -15.76917 h 12.7 v 15.76917 c 0,10.84791 10.45104,19.685 23.28333,19.685 h 24.47396 c 12.83229,0 23.28333,-8.83709 23.28333,-19.685 z"
           id="path2-973-8" />
        <g
           id="g22">
          <path
             style="fill:#ffffff;fill-opacity:1;stroke-width:0.264579"
             d="m 584.7485,111.82679 v 15.36335 c 0,9.11238 8.779,16.53565 19.55829,16.53565 h 20.55844 c 10.77929,0 19.55845,-7.42327 19.5583,-16.53565 l -2.5e-4,-15.36335"
             id="path14-4"
             sodipodi:nodetypes="cssssc" />
          <g
             id="g6-9-3"
             transform="matrix(0.17192954,0,0,0.17192954,596.70534,116.24363)">
            <rect
               width="198"
               height="118"
               x="5"
               y="5"
               ry="10"
               stroke="#000000"
               stroke-width="10"
               fill="none"
               id="rect1-2-7" />
            <path
               d="M 30,98 V 30 H 50 L 70,55 90,30 h 20 V 98 H 90 V 59 L 70,84 50,59 v 39 z m 125,0 -30,-33 h 20 V 30 h 20 v 35 h 20 z"
               id="path1-2-5-45" />
          </g>
        </g>
        <g
           id="g24">
          <path
             style="fill:#ffffff;fill-opacity:1;stroke-width:0.264583"
             d="m 668.86257,111.82679 v 15.36357 c 0,9.11251 8.77913,16.53588 19.55857,16.53588 h 20.55873 c 10.77944,0 19.55872,-7.42337 19.55857,-16.53588 l -2.5e-4,-15.36357"
             id="path14-3-5"
             sodipodi:nodetypes="cssssc" />
          <g
             style="overflow:visible;stroke-width:1.3574"
             id="g15-4-4"
             transform="matrix(0.04668672,0,0,0.04668672,687.3822,114.98426)">
            <g
               shape-rendering="geometricPrecision"
               text-rendering="geometricPrecision"
               image-rendering="optimizeQuality"
               id="g11-3-6-4"
               style="stroke-width:1.3574">
              <rect
                 y="40.473"
                 width="484.862"
                 height="484.862"
                 id="rect1-3-9-3"
                 x="0"
                 style="stroke-width:1.3574" />
              <rect
                 y="50.807999"
                 x="9.4770002"
                 fill="#ffffff"
                 width="464.19199"
                 height="329.84698"
                 id="rect2-2-0"
                 style="stroke-width:1.3574" />
              <path
                 d="m 383.476,267.343 c -2.544,-1.346 -5.14,-2.493 -7.743,-3.516 l 1.863,-0.15 c 0,0 -16.608,-7.354 -18.057,-60.722 -1.438,-53.372 15.828,-62.478 15.828,-62.478 l -2.48,0.109 c 13.045,-6.69 24.265,-17.267 31.669,-31.216 19.295,-36.291 5.488,-81.362 -30.81,-100.657 -36.31,-19.276 -81.372,-5.506 -100.656,30.817 -7.927,14.899 -10.178,31.273 -7.677,46.733 l -0.851,-1.306 c 0,0 4.373,19.365 -41.032,47.55 -45.397,28.2 -65.877,14.159 -65.877,14.159 l 1.302,1.925 c -1.298,-0.803 -2.544,-1.624 -3.901,-2.333 -36.306,-19.294 -81.38,-5.509 -100.667,30.804 -19.281,36.309 -5.489,81.365 30.813,100.668 27.064,14.364 58.974,10.36 81.461,-7.655 l -0.487,0.946 c 0,0 16.531,-13.599 64.16,11.973 37.601,20.178 43.184,39.956 43.899,47.383 -0.983,27.57 13.388,54.618 39.389,68.433 36.301,19.299 81.374,5.498 100.657,-30.804 19.292,-36.302 5.507,-81.382 -30.803,-100.663 z m -83.934,9.785 c -6.018,2.129 -23.203,4.487 -59.389,-14.921 -39.187,-21.04 -45.005,-38.615 -45.855,-43.891 0.557,-6.401 0.202,-12.791 -0.891,-19.02 l 0.239,0.359 c 0,0 -3.189,-17.096 41.65,-44.943 40.133,-24.908 58.376,-19.955 61.771,-18.653 2.185,1.485 4.45,2.867 6.825,4.131 4.518,2.398 9.174,4.283 13.888,5.672 5.52,5.257 15.678,20.178 16.733,59.413 1.078,39.535 -10.533,54.779 -16.865,60.168 -6.526,2.956 -12.626,6.897 -18.106,11.685 z"
                 fill="#0c479c"
                 id="path2-3-2-7"
                 style="stroke-width:1.3574" />
              <g
                 id="g3-8-4-8"
                 style="stroke-width:1.3574">
                <path
                   d="m 294.631,32.4 c -21.659,23.694 -22.118,58.544 -1.246,78.264 -10.316,-9.935 -10.093,-30.608 0.33,-50.387 1.342,-1.774 5.224,-5.961 10.898,-4.055 0.569,0.194 0.951,0.245 1.17,0.213 1.284,0.278 2.601,0.439 3.96,0.381 8.622,-0.393 15.288,-7.684 14.898,-16.307 -0.175,-3.868 -1.78,-7.292 -4.26,-9.92 20.007,-13.107 42.968,-14.61 52.375,-6.016 l 0.359,0.025 C 351.625,4.97 316.493,8.476 294.631,32.4 Z"
                   fill="#ffffff"
                   id="path3-6-7-6"
                   style="stroke-width:1.3574" />
              </g>
              <g
                 id="g5-0-7-8"
                 style="stroke-width:1.3574">
                <path
                   d="m 76.205,251.381 c -0.184,-0.19 -0.371,-0.406 -0.562,-0.598 0.121,0.125 0.235,0.279 0.378,0.407 z"
                   fill="#ffffff"
                   id="path4-4-5-8"
                   style="stroke-width:1.3574" />
                <path
                   d="m 76.894,172.52 c -21.663,23.694 -22.114,58.541 -1.251,78.264 -10.313,-9.935 -10.092,-30.608 0.331,-50.387 1.345,-1.778 5.231,-5.961 10.906,-4.055 0.565,0.195 0.946,0.242 1.167,0.212 1.283,0.275 2.603,0.44 3.959,0.377 8.623,-0.392 15.288,-7.684 14.899,-16.303 -0.179,-3.867 -1.782,-7.296 -4.252,-9.92 19.995,-13.107 42.959,-14.617 52.366,-6.021 l 0.355,0.03 c -21.483,-19.631 -56.623,-16.126 -78.48,7.803 z"
                   fill="#ffffff"
                   id="path5-8-4-4"
                   style="stroke-width:1.3574" />
              </g>
              <g
                 id="g7-8-8-3"
                 style="stroke-width:1.3574">
                <path
                   d="m 306.701,370.015 c -0.187,-0.191 -0.374,-0.404 -0.564,-0.594 0.117,0.125 0.237,0.279 0.378,0.402 z"
                   fill="#ffffff"
                   id="path6-8-1-1"
                   style="stroke-width:1.3574" />
                <path
                   d="m 307.39,291.145 c -21.666,23.704 -22.118,58.553 -1.254,78.276 -10.317,-9.935 -10.09,-30.611 0.331,-50.388 1.344,-1.781 5.227,-5.96 10.906,-4.053 0.568,0.189 0.941,0.242 1.166,0.212 1.282,0.277 2.605,0.44 3.963,0.381 8.617,-0.396 15.28,-7.692 14.891,-16.32 -0.176,-3.864 -1.781,-7.288 -4.252,-9.917 20.002,-13.103 42.959,-14.61 52.37,-6.016 l 0.355,0.029 c -21.483,-19.631 -56.625,-16.123 -78.476,7.796 z"
                   fill="#ffffff"
                   id="path7-9-2-4"
                   style="stroke-width:1.3574" />
              </g>
              <g
                 id="g10-7-8-92"
                 style="stroke-width:1.3574">
                <path
                   d="m 132.259,497.639 h -27.878 l -25.326,-30 h -8.171 v 30 H 48.197 v -81.875 h 36.565 c 5.046,0 9.441,0.284 13.186,0.853 3.745,0.569 7.203,1.751 10.377,3.548 3.256,1.871 5.84,4.245 7.753,7.124 1.912,2.879 2.869,6.537 2.869,10.975 0,6.271 -1.567,11.359 -4.7,15.265 -3.133,3.906 -7.324,7.014 -12.572,9.324 z M 95.509,440.84 c 0,-2.054 -0.438,-3.823 -1.314,-5.31 -0.876,-1.485 -2.332,-2.632 -4.368,-3.438 -1.426,-0.55 -3.015,-0.898 -4.767,-1.045 -1.752,-0.147 -3.931,-0.221 -6.538,-0.221 h -7.638 v 22.063 h 6.538 c 3.178,0 5.876,-0.174 8.097,-0.522 2.22,-0.348 4.104,-1.091 5.651,-2.229 1.467,-1.026 2.557,-2.255 3.27,-3.686 0.713,-1.431 1.069,-3.302 1.069,-5.612 z"
                   fill="#ffffff"
                   id="path8-7-9-0"
                   style="stroke-width:1.3574" />
                <path
                   d="m 289.092,456.783 c 0,7.625 -1.854,14.453 -5.56,20.483 -3.706,6.03 -8.39,10.658 -14.051,13.884 -4.725,2.75 -9.866,4.519 -15.425,5.307 -5.56,0.788 -11.476,1.182 -17.747,1.182 h -28.468 v -81.875 h 28.224 c 6.394,0 12.38,0.367 17.96,1.1 5.58,0.733 10.813,2.512 15.701,5.334 5.986,3.446 10.71,8.093 14.172,13.939 3.462,5.846 5.194,12.728 5.194,20.646 z m -23.437,-0.137 c 0,-5.389 -1.03,-9.999 -3.09,-13.83 -2.061,-3.83 -5.231,-6.827 -9.515,-8.991 -3.101,-1.539 -6.354,-2.383 -9.76,-2.529 -3.406,-0.146 -7.476,-0.22 -12.207,-0.22 h -0.429 v 51.25 h 0.429 c 5.139,0 9.473,-0.082 13.002,-0.247 3.528,-0.165 6.884,-1.146 10.065,-2.942 3.753,-2.126 6.608,-5.059 8.566,-8.798 1.958,-3.739 2.939,-8.304 2.939,-13.693 z"
                   fill="#ffffff"
                   id="path9-6-3-6"
                   style="stroke-width:1.3574" />
                <path
                   d="m 432.269,431.389 h -38.188 v 15.438 h 35.125 v 15.625 h -35.125 v 35.188 h -22.688 v -81.875 h 60.875 v 15.624 z"
                   fill="#ffffff"
                   id="path10-4-6-8"
                   style="stroke-width:1.3574" />
              </g>
            </g>
          </g>
        </g>
      </g>
      <path
         d="m 594.38628,140.44083 c 1.05833,0 1.93146,0.37042 2.67229,1.11125 0.74082,0.74083 1.11125,1.64042 1.11125,2.67229 v 13.12334 h -13.41438 c -1.05833,0 -1.93146,-0.37042 -2.67229,-1.11125 -0.74083,-0.74084 -1.11125,-1.64042 -1.11125,-2.6723 V 147.32 h 14.04938 v -3.09563 c 0,-0.18521 -0.0529,-0.3175 -0.18521,-0.44979 -0.13229,-0.13229 -0.26458,-0.18521 -0.44979,-0.18521 H 580.9719 v -3.14854 z m 0.635,13.75833 v -3.73062 h -10.90084 v 3.09562 c 0,0.18521 0.0529,0.3175 0.18521,0.4498 0.13229,0.13229 0.26459,0.1852 0.44979,0.1852 z m 30.34771,-13.75833 h 3.3602 l -6.35001,16.90688 h -2.56645 l -5.68854,-12.56771 -5.37104,12.56771 -0.0529,-0.0265 0.0265,0.0265 h -2.54 l -6.64104,-16.90688 h 3.33375 l 4.57729,11.21833 4.86834,-11.21833 h 3.59833 l 5.15938,11.21833 z m 17.78,0 c 1.05832,0 1.93145,0.37042 2.67229,1.11125 0.74082,0.74083 1.11125,1.64042 1.11125,2.67229 v 6.24417 h -14.04938 v 3.09562 c 0,0.18521 0.0529,0.3175 0.1852,0.4498 0.13229,0.13229 0.26459,0.1852 0.44979,0.1852 h 13.41439 v 3.14855 h -13.41439 c -1.05832,0 -1.93146,-0.37042 -2.67228,-1.11125 -0.74083,-0.74084 -1.11126,-1.64042 -1.11126,-2.6723 v -9.33979 c 0,-1.05833 0.37042,-1.93146 1.11126,-2.67229 0.74082,-0.74083 1.64041,-1.11125 2.67228,-1.11125 z M 632.88315,147.32 h 10.90084 v -3.09563 c 0,-0.18521 -0.0529,-0.3175 -0.18521,-0.44979 -0.13229,-0.13229 -0.26459,-0.18521 -0.44979,-0.18521 h -9.63084 c -0.18521,0 -0.3175,0.0529 -0.44979,0.18521 -0.13229,0.13229 -0.18521,0.26458 -0.18521,0.44979 z m 34.13125,-3.06917 v 0.635 h -3.14854 v -0.635 c 0,-0.18521 -0.0529,-0.3175 -0.18521,-0.44979 -0.13229,-0.13229 -0.26458,-0.18521 -0.44979,-0.18521 h -9.63083 c -0.18521,0 -0.3175,0.0529 -0.44979,0.18521 -0.1323,0.13229 -0.18521,0.26458 -0.18521,0.44979 v 2.46063 c 0,0.1852 0.0529,0.3175 0.18521,0.44979 0.13229,0.13229 0.26458,0.18521 0.44979,0.18521 h 9.63083 c 1.05833,0 1.93146,0.37041 2.67229,1.11125 0.74084,0.74083 1.11125,1.64041 1.11125,2.67229 v 2.46062 c 0,1.05834 -0.37041,1.93146 -1.11125,2.67229 -0.74083,0.74084 -1.64041,1.11125 -2.67229,1.11125 h -9.63083 c -1.05834,0 -1.93146,-0.37041 -2.67229,-1.11125 -0.74084,-0.74083 -1.11125,-1.64041 -1.11125,-2.67229 v -0.635 h 3.14854 v 0.635 c 0,0.18521 0.0529,0.3175 0.18521,0.44979 0.13229,0.1323 0.26458,0.18521 0.44979,0.18521 h 9.63083 c 0.18521,0 0.3175,-0.0529 0.44979,-0.18521 0.13229,-0.13229 0.18521,-0.26458 0.18521,-0.44979 V 151.13 c 0,-0.18521 -0.0529,-0.3175 -0.18521,-0.44979 -0.13229,-0.1323 -0.26458,-0.18521 -0.44979,-0.18521 h -9.63083 c -1.05834,0 -1.93146,-0.37042 -2.67229,-1.11125 -0.74084,-0.74084 -1.11125,-1.64042 -1.11125,-2.67229 v -2.46063 c 0,-1.05833 0.37041,-1.93146 1.11125,-2.67229 0.74083,-0.74083 1.64041,-1.11125 2.67229,-1.11125 h 9.63083 c 1.05833,0 1.93146,0.37042 2.67229,1.11125 0.74084,0.71437 1.11125,1.61396 1.11125,2.67229 z m 6.6675,-3.81 h 9.63084 c 1.05833,0 1.93145,0.37042 2.67229,1.11125 0.74083,0.74083 1.11125,1.64042 1.11125,2.67229 v 9.33979 c 0,1.05834 -0.37042,1.93146 -1.11125,2.6723 -0.74084,0.74083 -1.64042,1.11125 -2.67229,1.11125 h -9.63084 c -1.05833,0 -1.93146,-0.37042 -2.67229,-1.11125 -0.74083,-0.74084 -1.11125,-1.64042 -1.11125,-2.6723 v -9.33979 c 0,-1.05833 0.37042,-1.93146 1.11125,-2.67229 0.74083,-0.74083 1.64042,-1.11125 2.67229,-1.11125 z m 9.63084,3.14854 h -9.63084 c -0.18521,0 -0.3175,0.0529 -0.44979,0.18521 -0.13229,0.13229 -0.18521,0.26458 -0.18521,0.44979 v 9.33979 c 0,0.18521 0.0529,0.3175 0.18521,0.4498 0.13229,0.13229 0.26458,0.1852 0.44979,0.1852 h 9.63084 c 0.1852,0 0.3175,-0.0529 0.44979,-0.1852 0.13229,-0.1323 0.18521,-0.26459 0.18521,-0.4498 v -9.33979 c 0,-0.18521 -0.0529,-0.3175 -0.18521,-0.44979 -0.13229,-0.10583 -0.26459,-0.18521 -0.44979,-0.18521 z m 28.4427,-3.14854 c 1.05834,0 1.93146,0.37042 2.67229,1.11125 0.74084,0.74083 1.11125,1.64042 1.11125,2.67229 v 13.12334 h -3.12208 v -13.12334 c 0,-0.18521 -0.0529,-0.3175 -0.18521,-0.44979 -0.13229,-0.13229 -0.29104,-0.18521 -0.47625,-0.18521 h -6.6675 c -0.1852,0 -0.3175,0.0529 -0.44979,0.18521 -0.13229,0.13229 -0.18521,0.26458 -0.18521,0.44979 v 13.12334 h -3.14854 v -13.12334 c 0,-0.18521 -0.0529,-0.3175 -0.18521,-0.44979 -0.13229,-0.13229 -0.26458,-0.18521 -0.44979,-0.18521 h -6.69396 c -0.1852,0 -0.3175,0.0529 -0.44979,0.18521 -0.13229,0.13229 -0.18521,0.26458 -0.18521,0.44979 v 13.12334 h -3.14854 v -16.90688 z m 20.24063,0 c 1.05833,0 1.93146,0.37042 2.67229,1.11125 0.74083,0.74083 1.11125,1.64042 1.11125,2.67229 v 6.24417 h -14.04938 v 3.09562 c 0,0.18521 0.0529,0.3175 0.18521,0.4498 0.13229,0.13229 0.26459,0.1852 0.44979,0.1852 h 13.41438 v 3.14855 h -13.41438 c -1.05833,0 -1.93145,-0.37042 -2.67229,-1.11125 -0.74083,-0.74084 -1.11125,-1.64042 -1.11125,-2.6723 v -9.33979 c 0,-1.05833 0.37042,-1.93146 1.11125,-2.67229 0.74084,-0.74083 1.64042,-1.11125 2.67229,-1.11125 z M 721.73023,147.32 h 10.90084 v -3.09563 c 0,-0.18521 -0.0529,-0.3175 -0.18521,-0.44979 -0.13229,-0.13229 -0.26458,-0.18521 -0.44979,-0.18521 h -9.63084 c -0.1852,0 -0.3175,0.0529 -0.44979,0.18521 -0.13229,0.13229 -0.18521,0.26458 -0.18521,0.44979 z"
         fill="#494368"
         id="path1-28-9"
         style="stroke-width:0.264583" />
    </g>
  </g>
</svg>
